<svg width="400" height="21" viewBox="0 0 400 21" fill="none" xmlns="http://www.w3.org/2000/svg">
<g clip-path="url(#clip0)">
<path d="M7.2774 10.7551C7.3418 9.96079 8.00729 10.0467 8.5225 9.91785C10.4331 9.48851 12.3651 9.63878 14.2972 9.57438C23.0773 9.2309 31.8789 9.01623 40.659 8.73715C52.1655 8.39368 63.6505 7.66379 75.157 6.95537C83.3575 6.46162 91.6009 6.26841 99.8014 5.86053C108.367 5.43119 116.932 4.89451 125.498 4.44369C131.058 4.14315 136.639 3.94995 142.221 3.67087C148.511 3.37033 154.779 2.98392 161.069 2.68338C170.708 2.25403 180.368 1.84615 190.007 1.48121C198.229 1.1592 206.429 0.815722 214.651 0.579582C220.362 0.407843 226.094 0.364909 231.804 0.300507C239.231 0.214638 246.659 0.107301 254.108 0.0858339C262.395 0.0428993 270.703 0.0214321 278.989 0.0643666C284.57 0.107301 290.152 0.27904 295.712 0.407843C296.141 0.407843 296.571 0.343441 297.086 0.643983C296.592 1.2236 295.905 1.26653 295.368 1.18067C293.823 0.923058 292.234 1.26653 290.689 0.880124C289.25 0.51518 287.748 0.923058 286.288 0.901591C283.583 0.880124 280.878 0.75132 278.195 0.51518C277.035 0.407843 275.941 0.858656 274.803 0.880124C270.466 0.944525 266.109 1.0948 261.772 0.772787C260.549 0.686918 259.368 0.965993 258.166 1.00893C253.808 1.1592 249.45 0.536647 245.135 0.880124C240.627 1.24507 236.14 1.24507 231.632 1.33094C228.068 1.41681 224.483 1.30947 220.92 1.39534C215.489 1.52414 210.057 1.84615 204.648 1.84615C200.075 1.84615 195.546 2.68338 190.973 2.55457C190.222 2.5331 189.47 2.66191 188.719 2.85511C189.706 3.43473 190.78 3.22006 191.789 3.17712C198.508 2.83365 205.206 2.64044 211.925 2.4043C224.763 1.99642 237.643 2.16816 250.523 1.93202C261.686 1.73882 272.828 1.67441 283.991 1.86762C293.995 2.01789 303.998 2.31843 314.024 2.51164C320.957 2.64044 327.891 2.79071 334.825 2.83365C349.487 2.91952 364.15 3.02685 378.812 2.83365C378.941 2.83365 379.048 2.74778 379.327 2.66191C376.322 2.08229 373.381 2.36137 370.483 2.2755C370.483 2.12523 370.482 1.99642 370.461 1.84615C371.771 1.71735 373.102 1.45974 374.411 1.45974C381.431 1.43827 388.429 1.26653 395.427 0.794254C396.222 0.729853 396.973 0.601049 397.724 0.27904C398.111 0.107301 398.54 0.0428993 398.97 0.0214321C399.42 -3.52385e-05 399.807 0.257572 399.979 0.686918C400.129 1.11626 400.021 1.61001 399.549 1.76028C398.755 2.01789 398.884 2.31843 398.948 3.11272C399.098 4.7013 399.635 6.26841 399.12 7.96433C398.39 10.3472 397.639 11.0986 395.084 11.2274C389.953 11.4635 384.823 11.442 379.692 11.3562C371.556 11.2059 363.398 11.3132 355.241 11.2488C345.58 11.163 335.942 10.9912 326.281 10.8624C320.12 10.798 313.981 10.8195 307.819 10.6907C301.379 10.5619 294.961 10.3472 288.52 10.1111C279.225 9.78905 269.93 9.91785 260.634 10.0037C254.988 10.0467 249.343 9.89639 243.697 10.2399C236.698 10.6692 229.7 10.154 222.68 10.3043C213.32 10.5189 203.961 10.8195 194.601 11.2059C183.739 11.6782 172.876 12.086 162.014 12.5369C159.373 12.6442 156.711 12.6657 154.092 12.9447C147.051 13.6317 139.988 13.5029 132.947 13.8893C122.321 14.4689 111.673 15.1344 101.047 15.714C96.6243 15.9502 92.1805 15.9502 87.7583 16.1648C81.7689 16.4654 75.7581 16.8303 69.7687 17.2167C59.7005 17.8393 49.6538 18.5906 39.5642 18.7838C28.7662 18.9985 17.9896 19.6855 7.19153 20.0719C6.0323 20.1148 4.916 20.1792 4.14317 19.02C3.90703 18.6765 3.41329 18.5906 2.98394 18.5477C2.38286 18.4833 1.84617 18.2472 1.48123 17.7749C0.601071 16.6371 -0.364957 15.3705 0.107323 13.8893C0.579604 12.4295 2.14672 12.2578 3.47769 12.0216C4.25051 11.8714 5.0448 11.8928 5.83909 11.9143C12.4295 12.129 18.9771 11.485 25.5675 11.442C26.2115 11.442 26.877 11.485 27.4567 11.1415C27.6284 11.0556 27.8001 10.8195 27.8001 10.6692C27.8001 10.3472 27.5425 10.1325 27.242 10.1755C26.2545 10.3687 25.267 10.4331 24.258 10.476C20.9735 10.6692 17.7105 9.87492 14.426 10.3257C12.3007 10.6263 10.1755 10.798 8.05022 11.0127C7.77115 11.0342 7.49207 11.0771 7.2774 10.7551ZM150.207 4.91597C150.207 4.7657 150.185 4.61543 150.185 4.46516C147.502 4.80864 144.797 4.5725 142.113 4.78717C135.566 5.30239 128.997 5.36679 122.428 5.882C117.233 6.28988 112.016 6.41868 106.821 6.69776C96.6243 7.27738 86.3844 7.57792 76.1874 8.02873C72.4736 8.179 68.7383 8.22194 65.0459 8.62982C58.2837 9.40264 51.5 9.50997 44.7164 9.74611C39.7359 9.91785 34.7341 10.3687 29.7322 9.91785C29.3887 9.89639 28.9379 9.89639 28.895 10.3687C28.8306 10.9268 29.2814 11.0556 29.7107 11.12C29.9898 11.163 30.2903 11.1415 30.5694 11.1415C37.4389 11.1415 44.3085 10.8839 51.1565 10.4545C64.9385 9.59584 78.6991 8.82302 92.4811 8.179C102.184 7.72819 111.888 7.14857 121.591 6.63336C128.224 6.26841 134.879 5.92494 141.512 5.51706C144.41 5.38825 147.309 5.13065 150.207 4.91597ZM169.871 3.5206C169.871 3.62794 169.849 3.73527 169.849 3.84261C171.051 3.84261 172.254 3.84261 173.456 3.84261C175.667 3.82114 175.667 3.82114 176.783 3.19859C174.379 3.30593 172.125 3.41326 169.871 3.5206ZM186.078 3.24153C186.229 3.06979 186.229 2.87658 186.1 2.87658C183.932 2.94098 181.742 3.02685 179.574 3.09125C181.764 3.3918 183.932 3.56353 186.078 3.24153ZM151.924 4.37929C151.924 4.55103 151.924 4.7013 151.945 4.87304C153.878 4.7657 155.81 4.6369 157.763 4.52956C157.763 4.48663 157.763 4.44369 157.763 4.37929C155.788 4.37929 153.856 4.37929 151.924 4.37929ZM164.439 4.01435C166.329 4.27196 166.329 4.25049 167.23 3.69234C166.436 3.5206 165.685 3.62794 164.439 4.01435ZM162.421 4.05728C161.348 3.97141 161.348 3.97141 160.704 4.27196C161.176 4.37929 161.649 4.33636 162.421 4.05728Z" fill="white"/>
<path d="M343.691 1.61004C348.264 1.26657 352.836 1.43831 357.645 1.43831C356.314 2.25406 347.555 2.44727 343.691 1.61004Z" fill="white"/>
<path d="M305.415 0.837205C304.213 1.54562 302.989 1.39535 301.787 0.665466C302.989 0.729868 304.191 0.772803 305.415 0.837205Z" fill="white"/>
<path d="M307.004 1.26652C307.798 0.686907 308.356 1.05185 308.893 1.07332C308.42 1.61 307.884 1.5456 307.004 1.26652Z" fill="white"/>
<path d="M310.889 1.35234C310.868 1.28796 310.825 1.20212 310.825 1.20212C310.954 1.07337 311.039 1.11629 311.039 1.30942C311.039 1.33088 310.932 1.35234 310.889 1.35234Z" fill="white"/>
</g>
<defs>
<clipPath id="clip0">
<rect width="400" height="20.0719" fill="white"/>
</clipPath>
</defs>
</svg>
